<svg xmlns="http://www.w3.org/2000/svg" viewBox="0 0 24 24">
  <path d="M12 2C6.477 2 2 6.477 2 12s4.477 10 10 10 10-4.477 10-10S17.523 2 12 2zm0 1.5c.93 0 1.98.8 2.83 2.34.37.68.68 1.47.92 2.31H8.25c.24-.84.55-1.63.92-2.31C10.02 4.3 11.07 3.5 12 3.5zM7.9 4.28C7.3 5.27 6.83 6.45 6.52 7.75H3.86A8.53 8.53 0 0 1 7.9 4.28zM3.5 12c0-.76.1-1.5.28-2.2H6.2c-.07.72-.11 1.45-.11 2.2s.04 1.48.11 2.2H3.78A8.47 8.47 0 0 1 3.5 12zm.36 3.75h2.66c.31 1.3.78 2.48 1.38 3.47A8.53 8.53 0 0 1 3.86 15.25zm3.75 0h8.78c-.28 1.14-.65 2.16-1.09 2.99C14.37 19.56 13.2 20.5 12 20.5s-2.37-.94-3.3-2.26c-.44-.83-.81-1.85-1.09-2.99zm9.87 0h2.66a8.53 8.53 0 0 1-4.04 3.47c.6-.99 1.07-2.17 1.38-3.47zm2.94-1.55H17.8c.07-.72.11-1.45.11-2.2s-.04-1.48-.11-2.2h2.42c.18.7.28 1.44.28 2.2s-.1 1.5-.28 2.2zM17.48 9.8H6.52C6.59 9.1 6.7 8.42 6.85 7.8h10.3c.15.62.26 1.3.33 2zm-.96-5.52A8.53 8.53 0 0 1 20.14 7.75h-2.66c-.31-1.3-.78-2.48-1.38-3.47z"/>
</svg>
